<?xml version="1.0" encoding="utf-8"?>
<!-- Generator: Adobe Illustrator 21.0.0, SVG Export Plug-In . SVG Version: 6.00 Build 0)  -->
<svg version="1.1" id="Capa_1" xmlns="http://www.w3.org/2000/svg" xmlns:xlink="http://www.w3.org/1999/xlink" x="0px" y="0px"
	 viewBox="0 0 58.3 71.9" style="enable-background:new 0 0 58.3 71.9;" xml:space="preserve">
<style type="text/css">
	.st0{fill:#FFFFFF;}
	.st1{fill:#9579D1;}
</style>
<g>
	<path class="st0" d="M22.2,56.1L0,71.9l0,0c0,0,0-48.2,0-53.8C0,7.5,8.4,0,24.3,0c6.8,0,30.2,0,34,0C49,2.5,44.4,8.3,44.4,19
		c0,9.5,0,52.9,0,52.9L22.2,56.1z"/>
</g>
<g>
	<g>
		<path class="st1" d="M36.8,29.2c-0.2-0.6-0.7-1-1.2-1.2v-8c0.1-0.2,0.2-0.3,0.2-0.5c0-0.4-0.2-0.7-0.5-0.8L21,12.3
			c-0.2-0.1-0.5-0.1-0.7,0L6,18.7c-0.3,0.1-0.6,0.5-0.5,0.8c0,0.4,0.2,0.7,0.6,0.8L11,22v6.3c0,0.3,0.1,0.5,0.4,0.7
			c0.2,0.2,0.5,0.2,0.8,0.1c5.5-2,11.5-2,17,0l0.3,0.1c0.2,0,0.4-0.1,0.5-0.2c0.2-0.1,0.4-0.4,0.4-0.7v-6.4l3.5-1.2V28
			c-1.2,0.5-1.7,1.8-1.2,3s1.8,1.7,3,1.2C36.7,31.7,37.3,30.4,36.8,29.2z"/>
	</g>
</g>
<g>
	<path class="st0" d="M20.4,19.3l-1.1,0.1c-0.4,0-0.7,0.1-0.9,0.1c-0.3,0-0.4,0.1-0.4,0.1s0,0.1,0,0.2s-0.1,0.3-0.1,0.6
		c-0.1,0.2-0.1,0.4-0.1,0.5c0.1,0,0.4,0,0.6,0s0.5-0.1,0.6-0.1c0.3-0.1,0.6-0.1,0.8-0.1c0.4,0,0.5,0.1,0.5,0.3
		c0,0.2-0.1,0.3-0.2,0.3c-0.1,0.1-0.3,0.1-0.5,0.1c-0.1,0-0.3,0-0.4,0.1c-0.1,0-0.2,0-0.3,0c-0.6,0.1-1,0.1-1.1,0.2l0,0
		c0,0-0.1,0-0.1,0.1c0,0-0.1,0.2-0.1,0.5c-0.2,0.3-0.2,0.5-0.2,0.6s0.1,0.1,0.2,0.1s0.4,0,0.9-0.1s0.8-0.1,0.9-0.1
		c0.3-0.1,0.5-0.1,0.6-0.1c0.3,0,0.4,0.2,0.4,0.4c0,0.1,0,0.2-0.1,0.2c-0.2,0.1-0.5,0.2-0.9,0.2c-0.3,0-0.7,0.1-1.1,0.1
		c-0.4,0.1-0.8,0.1-1.1,0.1c-0.2,0-0.3,0-0.4-0.1s-0.1-0.2-0.1-0.4v-0.1c0,0,0-0.1,0.1-0.2c0.1-0.3,0.2-0.9,0.3-1.9s0.2-1.5,0.2-1.6
		l0,0c0,0,0-0.1-0.1-0.1c0-0.1-0.1-0.1-0.1-0.2V19l0.1-0.1l0.2-0.1c0.1,0,0.2,0,0.3,0c0.2,0,0.8-0.1,1.8-0.2c0.3,0,0.5-0.1,0.5-0.1
		l0,0c0.4,0,0.6,0.1,0.6,0.4c0,0.1,0,0.1-0.1,0.2C20.5,19.2,20.4,19.3,20.4,19.3z"/>
	<path class="st0" d="M24.5,23.3c-0.1,0-0.1,0-0.3,0c-0.1,0-0.2,0-0.3,0c-0.6,0-1.2,0.1-1.8,0.3c-0.2,0.1-0.4,0.1-0.5,0.1
		s-0.2-0.1-0.3-0.2s-0.1-0.2-0.1-0.3c0,0,0-0.1,0.1-0.3c0.1-0.2,0.1-0.4,0.1-0.7l0.3-2.8c0-0.3,0-0.4,0.1-0.5c0-0.1,0.1-0.2,0.1-0.2
		s0.2-0.1,0.3-0.1c0.1,0,0.2,0,0.3,0.1s0.1,0.2,0.1,0.3c0,0.1,0,0.2-0.1,0.5s-0.1,0.9-0.2,1.8c-0.1,0.9-0.2,1.4-0.2,1.4
		c0,0.1,0,0.1,0,0.1c0.1,0,0.3,0,0.7-0.1c0.2,0,0.4,0,0.6-0.1c0.5,0,0.9-0.1,1.1-0.1c0.1,0,0.1,0,0.2,0c0.1,0,0.2,0,0.3,0.1
		s0.1,0.2,0.1,0.3c0,0.2-0.1,0.3-0.2,0.4C24.8,23.3,24.7,23.3,24.5,23.3z"/>
</g>
<g>
	<ellipse class="st1" cx="34.7" cy="33.6" rx="0.2" ry="0.8"/>
	<g>
		<g>
			<ellipse transform="matrix(0.8429 -0.538 0.538 0.8429 -9.4179 24.7746)" class="st1" cx="37.7" cy="28.5" rx="0.8" ry="0.2"/>
			<ellipse transform="matrix(0.3745 -0.9272 0.9272 0.3745 -2.3108 50.7348)" class="st1" cx="36.4" cy="27.1" rx="0.8" ry="0.2"/>
			<ellipse class="st1" cx="38.1" cy="30.2" rx="0.8" ry="0.2"/>
		</g>
		<g>
			<ellipse transform="matrix(0.538 -0.8429 0.8429 0.538 -9.4757 46.5567)" class="st1" cx="37.7" cy="31.9" rx="0.2" ry="0.8"/>
			<ellipse transform="matrix(0.9272 -0.3745 0.3745 0.9272 -9.7735 16.0809)" class="st1" cx="36.5" cy="33.2" rx="0.2" ry="0.8"/>
			<ellipse class="st1" cx="38.1" cy="30.2" rx="0.8" ry="0.2"/>
		</g>
	</g>
	<g>
		<g>
			<ellipse transform="matrix(0.538 -0.8429 0.8429 0.538 -9.3949 39.8105)" class="st1" cx="31.6" cy="28.5" rx="0.2" ry="0.8"/>
			<ellipse transform="matrix(0.9272 -0.3745 0.3745 0.9272 -7.7527 14.2879)" class="st1" cx="32.9" cy="27.1" rx="0.2" ry="0.8"/>
			<ellipse class="st1" cx="31.3" cy="30.2" rx="0.8" ry="0.2"/>
		</g>
		<g>
			<ellipse transform="matrix(0.8429 -0.538 0.538 0.8429 -12.1937 22.0155)" class="st1" cx="31.6" cy="31.9" rx="0.8" ry="0.2"/>
			
				<ellipse transform="matrix(0.3745 -0.9272 0.9272 0.3745 -10.2106 51.2271)" class="st1" cx="32.9" cy="33.2" rx="0.8" ry="0.2"/>
			<ellipse class="st1" cx="31.3" cy="30.2" rx="0.8" ry="0.2"/>
		</g>
	</g>
</g>
<g>
	<path class="st1" d="M8.3,44H6.2v3.1h2.4V48H5.4v-8.5h3v0.9H6.1v2.7h2.1V44H8.3z"/>
	<path class="st1" d="M11.6,48l-0.1-0.8l0,0c-0.2,0.5-0.6,0.9-1.2,0.9c-0.8,0-1.2-0.9-1.2-1.8c0-1.5,0.9-2.3,2.4-2.3v0
		c0-0.5-0.1-1.4-0.9-1.4c-0.4,0-0.8,0.2-1,0.5l-0.2-0.8c0.3-0.3,0.8-0.5,1.3-0.5c1.2,0,1.5,1.3,1.5,2.5v2.3c0,0.5,0,1,0.1,1.5
		L11.6,48L11.6,48z M11.5,44.9c-0.8,0-1.7,0.2-1.7,1.4c0,0.7,0.3,1.1,0.7,1.1c0.5,0,0.8-0.5,1-1c0-0.1,0-0.2,0-0.4V44.9z"/>
	<path class="st1" d="M13.3,46.9c0.2,0.2,0.6,0.4,1,0.4c0.5,0,0.8-0.4,0.8-0.9s-0.2-0.8-0.7-1.1c-0.7-0.4-1-1-1-1.7
		c0-1,0.5-1.8,1.4-1.8c0.4,0,0.8,0.2,1,0.4l-0.4,0.7c-0.2-0.2-0.4-0.4-0.8-0.4s-0.7,0.4-0.7,0.8c0,0.5,0.2,0.7,0.8,1
		c0.7,0.4,1,0.9,1,1.8c0,1.1-0.5,1.8-1.5,1.8c-0.4,0-0.8-0.2-1.1-0.4L13.3,46.9z"/>
	<path class="st1" d="M16.9,41.9l0.9,3.6c0.1,0.4,0.2,0.9,0.3,1.3l0,0c0.1-0.4,0.2-0.8,0.3-1.3l0.8-3.6H20l-1.1,4.4
		c-0.5,2.1-0.9,3.2-1.4,3.8c-0.4,0.5-0.7,0.7-0.9,0.7l-0.2-0.9c0.2-0.1,0.4-0.3,0.6-0.5s0.4-0.7,0.6-1.2c0-0.1,0.1-0.2,0.1-0.3
		s0-0.2,0-0.3L16.2,42h0.7V41.9z"/>
	<path class="st1" d="M22.2,39h0.7v9h-0.7V39z"/>
	<path class="st1" d="M24.6,45.1c0,1.5,0.6,2.1,1.4,2.1c0.5,0,0.8-0.1,1.1-0.3l0.1,0.8c-0.3,0.2-0.7,0.4-1.3,0.4
		c-1.2,0-1.9-1.2-1.9-3.1c0-1.8,0.7-3.3,1.9-3.3c1.3,0,1.6,1.8,1.6,2.9c0,0.2,0,0.4,0,0.5C27.5,45.1,24.6,45.1,24.6,45.1z
		 M26.7,44.4c0-0.7-0.2-1.8-1-1.8c-0.7,0-1,1-1.1,1.8H26.7z"/>
	<path class="st1" d="M30.5,48l-0.1-0.8l0,0c-0.2,0.5-0.6,0.9-1.2,0.9c-0.8,0-1.2-0.9-1.2-1.8c0-1.5,0.9-2.3,2.4-2.3v0
		c0-0.5-0.1-1.4-0.9-1.4c-0.4,0-0.8,0.2-1,0.5l-0.2-0.7c0.3-0.3,0.8-0.5,1.3-0.5c1.2,0,1.5,1.3,1.5,2.5v2.3c0,0.5,0,1,0.1,1.5h-0.7
		V48z M30.4,44.9c-0.8,0-1.7,0.2-1.7,1.4c0,0.7,0.3,1.1,0.7,1.1c0.5,0,0.8-0.5,1-1c0-0.1,0-0.2,0-0.4V44.9z"/>
	<path class="st1" d="M32.2,43.8c0-0.7,0-1.3,0-1.9h0.6v1.2l0,0c0.2-0.8,0.6-1.3,1.1-1.3c0.1,0,0.1,0,0.2,0v1c-0.1,0-0.1,0-0.2,0
		c-0.5,0-0.9,0.6-1,1.4c0,0.2,0,0.3,0,0.5V48h-0.7C32.2,48,32.2,43.8,32.2,43.8z"/>
	<path class="st1" d="M35,43.5c0-0.6,0-1.1,0-1.7h0.6v1l0,0c0.2-0.6,0.7-1.1,1.3-1.1c0.5,0,1.4,0.5,1.4,2.6V48h-0.7v-3.5
		c0-1-0.2-1.8-0.9-1.8c-0.5,0-0.8,0.5-1,1.1c0,0.1,0,0.3,0,0.5V48H35C35,48,35,43.5,35,43.5z"/>
</g>
</svg>
