<?xml version="1.0" encoding="iso-8859-1"?>
<!-- Generator: Adobe Illustrator 19.0.0, SVG Export Plug-In . SVG Version: 6.00 Build 0)  -->
<svg version="1.1" id="Capa_1" xmlns="http://www.w3.org/2000/svg" xmlns:xlink="http://www.w3.org/1999/xlink" x="0px" y="0px"
	 viewBox="0 0 496.031 496.031" style="enable-background:new 0 0 496.031 496.031;" xml:space="preserve">
<g>
	<g>
		<g>
			<path d="M402.044,180.016c48.928-28.256,82.744-55.864,91.432-76.648c3.12-7.472,3.384-14.32,0.784-20.376
				c-7.232-16.888-34.68-22.504-81.512-16.808c-5.184-10.704-16.064-18.168-28.736-18.168c-16.792,0-30.448,13.04-31.752,29.504
				c-15.44,3.712-31.6,8.12-48.248,13.168V64.016h16v-64h-144v64h16v26.632c-93.832-28.56-177-38.544-190.24-7.656
				c-11.2,26.128,33.024,63.136,91.88,96.992c-49.496,28.512-82.784,56.088-91.28,77.128c-2.944,7.296-3.152,14-0.6,19.936
				c6.04,14.096,25.608,19.024,50.024,19.024c13.168,0,27.744-1.472,42.368-3.672c-3.952,13.952-6.152,28.576-6.152,43.616
				c0,88.224,71.776,160,160,160s160-71.776,160-160c0-15.064-2.2-29.704-6.168-43.672c16.288,2.448,30.616,3.736,42.72,3.736
				c27.6,0,44.256-6.36,49.688-19.04c2.6-6.056,2.336-12.904-0.784-20.376C484.788,235.88,450.964,208.272,402.044,180.016z
				 M384.012,64.016c8.824,0,16,7.176,16,16s-7.176,16-16,16c-8.824,0-16-7.176-16-16S375.188,64.016,384.012,64.016z
				 M304.02,107.424c17.624-5.448,34.712-10.168,50.984-14.096c5.064,11,16.128,18.688,29.008,18.688
				c16.992,0,30.792-13.344,31.808-30.088c42.344-5.016,60.856,0.656,63.736,7.36c0.824,1.928,0.536,4.584-0.848,7.904
				c-6.936,16.6-39.712,43.896-92.928,73.704c-24.472-13.312-52.064-26.6-81.76-39.272V107.424z M368.996,180.008
				c-11.968,6.312-24.832,12.704-38.488,19.088c-8.336-5-17.152-9.392-26.496-12.88v-37.184
				C327.78,159.344,349.588,169.768,368.996,180.008z M192.012,16.016h112v32h-32v16h16v60.928c-4.712-1.92-9.4-3.856-14.192-5.744
				c-21.848-8.584-44.016-16.512-65.808-23.536V64.016h48v-16h-64V16.016z M202.54,199.472l5.472-1.832v-85.2
				c18.96,6.232,38.968,13.408,59.952,21.648c6.84,2.688,13.488,5.4,20.048,8.12v55.424l5.472,1.832
				c6.568,2.184,12.856,4.872,18.912,7.896c-14.064,6.248-28.88,12.456-44.432,18.568c-21.464,8.448-42.928,16.032-64,22.832
				c-5.44-9.928-15.856-16.744-27.952-16.744c-17.648,0-32,14.352-32,32c0,0.656,0.152,1.264,0.192,1.904
				c-8.784,2.168-17.208,4.128-24.992,5.744C135.908,238.272,165.364,211.848,202.54,199.472z M192.012,264.016
				c0,8.824-7.176,16-16,16c-8.824,0-16-7.176-16-16c0-8.824,7.176-16,16-16C184.836,248.016,192.012,255.192,192.012,264.016z
				 M165.532,199.096c-13.944-6.512-26.84-12.896-38.688-19.12c19.2-10.08,41.016-20.472,65.168-30.936v37.176
				C182.676,189.704,173.868,194.088,165.532,199.096z M16.476,89.296c6.72-15.688,73.728-13.544,175.536,18.016V131.6
				c-30.032,12.8-57.656,26.056-82.016,39.264C39.604,131.624,11.732,100.368,16.476,89.296z M16.476,270.736
				c-0.8-1.864-0.552-4.44,0.736-7.632c6.496-16.08,37.544-43.176,92.784-74c13.016,7.056,26.512,13.904,40.12,20.424
				c-22.216,17.16-39.48,39.848-50.104,65.712C45.188,284.488,19.9,278.736,16.476,270.736z M104.012,336.016
				c0-16.208,2.76-31.896,7.8-46.624c13.232-2.496,25.952-5.36,37.304-8.176c5.696,8.872,15.592,14.8,26.896,14.8
				c17.552,0,31.824-14.208,31.976-31.728c21.664-6.976,43.752-14.784,65.832-23.456c19.256-7.568,37.752-15.48,55.4-23.552
				c27.728,18.92,47.952,46.928,57.16,79.184c-44.928,2.16-76.136,14.624-108.824,27.88c-42.88,17.384-87.264,35.336-171.376,35.64
				C104.86,352.176,104.012,344.2,104.012,336.016z M344.012,320.016c0,17.648-14.352,32-32,32c-10.592,0-20.288-5.272-26.2-13.744
				c19.368-7.848,37.56-14.968,58.04-19.832C343.884,318.968,344.012,319.488,344.012,320.016z M248.012,480.016
				c-65.544,0-120.888-44.056-138.248-104.08c76.376-0.752,122.224-16.2,160.944-31.592c8.56,14.52,24.16,23.672,41.304,23.672
				c26.472,0,48-21.528,48-48c0-1.584-0.08-3.176-0.24-4.752c9.36-1.536,19.392-2.528,30.264-2.928
				c1.28,7.736,1.976,15.64,1.976,23.68C392.012,415.416,327.412,480.016,248.012,480.016z M479.548,270.736
				c-2.784,6.504-23.608,14.584-83.552,4.496c-10.632-25.88-27.92-48.584-50.16-65.744c14.032-6.728,27.4-13.536,39.928-20.352
				c53.224,29.808,86,57.104,92.928,73.704C480.092,266.16,480.372,268.816,479.548,270.736z"/>
			<path d="M208.012,384.016c-17.648,0-32,14.352-32,32s14.352,32,32,32s32-14.352,32-32S225.66,384.016,208.012,384.016z
				 M208.012,432.016c-8.824,0-16-7.176-16-16c0-8.824,7.176-16,16-16c8.824,0,16,7.176,16,16
				C224.012,424.84,216.836,432.016,208.012,432.016z"/>
		</g>
	</g>
</g>
<g>
</g>
<g>
</g>
<g>
</g>
<g>
</g>
<g>
</g>
<g>
</g>
<g>
</g>
<g>
</g>
<g>
</g>
<g>
</g>
<g>
</g>
<g>
</g>
<g>
</g>
<g>
</g>
<g>
</g>
</svg>
