<?xml version="1.0" encoding="utf-8"?>
<!-- Generator: Adobe Illustrator 21.0.0, SVG Export Plug-In . SVG Version: 6.00 Build 0)  -->
<svg version="1.1" id="Capa_1" xmlns="http://www.w3.org/2000/svg" xmlns:xlink="http://www.w3.org/1999/xlink" x="0px" y="0px"
	 viewBox="0 0 512 512" style="enable-background:new 0 0 512 512;" xml:space="preserve">
<style type="text/css">
	.st0{fill:#9579D1;}
</style>
<g>
	<path class="st0" d="M409.6,136v270c0,1.6,0.4,3.4,0.9,4.7l34.1,91c2.3,6.1,8.8,10.3,16.2,10.3c7.4,0,13.9-4.2,16.2-10.3l34.1-91
		c0.5-1.3,0.9-3.1,0.9-4.7c0-13.1,0-247,0-270c0-24.8-23-45-51.2-45C432.6,91,409.6,111.2,409.6,136z M477.9,391h-34.1V181h34.1V391
		z M450.3,421h21.1l-10.5,28.1L450.3,421z M477.9,136v15h-34.1v-15c0-8.3,7.7-15,17.1-15S477.9,127.7,477.9,136z"/>
	<path class="st0" d="M0,497c0,8.3,7.6,15,17.1,15h341.3c9.4,0,17.1-6.7,17.1-15V45c0-8.3-7.6-15-17.1-15h-51.2V15
		c0-8.3-7.6-15-17.1-15s-17.1,6.7-17.1,15v15h-34.1V15c0-8.3-7.6-15-17.1-15c-9.4,0-17.1,6.7-17.1,15v15h-34.1V15
		c0-8.3-7.6-15-17.1-15c-9.4,0-17.1,6.7-17.1,15v15h-34.1V15c0-8.3-7.6-15-17.1-15S68.3,6.7,68.3,15v15H17.1C7.6,30,0,36.7,0,45V497
		z M34.1,482V150h307.2v332H34.1z M68.3,60v15c0,8.3,7.6,15,17.1,15s17.1-6.7,17.1-15V60h34.1v15c0,8.3,7.6,15,17.1,15
		c9.4,0,17.1-6.7,17.1-15V60h34.1v15c0,8.3,7.6,15,17.1,15c9.4,0,17.1-6.7,17.1-15V60h34.1v15c0,8.3,7.6,15,17.1,15
		s17.1-6.7,17.1-15V60h34.1v60H34.1V60H68.3z"/>
	<path class="st0" d="M290.1,211H153.6c-9.4,0-17.1,6.7-17.1,15s7.6,15,17.1,15h136.5c9.4,0,17.1-6.7,17.1-15S299.6,211,290.1,211z"
		/>
	<path class="st0" d="M290.1,271H85.3c-9.4,0-17.1,6.7-17.1,15s7.6,15,17.1,15h204.8c9.4,0,17.1-6.7,17.1-15S299.6,271,290.1,271z"
		/>
	<path class="st0" d="M290.1,331H85.3c-9.4,0-17.1,6.7-17.1,15s7.6,15,17.1,15h204.8c9.4,0,17.1-6.7,17.1-15S299.6,331,290.1,331z"
		/>
	<path class="st0" d="M221.9,391H85.3c-9.4,0-17.1,6.7-17.1,15s7.6,15,17.1,15h136.5c9.4,0,17.1-6.7,17.1-15S231.3,391,221.9,391z"
		/>
</g>
</svg>
