<svg id="Capa_1" data-name="Capa 1" xmlns="http://www.w3.org/2000/svg" viewBox="0 0 512 360"><defs><style>.cls-1{fill:#fff;}.cls-2{font-size:200.75px;font-family:OpenSans-Bold, Open Sans;font-weight:700;}</style></defs><title>russian</title><path d="M305.27,182.76c-7.79,0-15.58,2.8-15.58,9.39v67.9l-32.35-61.71c-7.59-14.58-11.78-15.58-23-15.58-7.79,0-15.58,3-15.58,9.59V319.16c0,6.39,7.79,9.59,15.58,9.59s15.58-3.2,15.58-9.59v-67.9l37.94,69.1c3.8,7,10.19,8.39,17.38,8.39,7.79,0,15.58-3.2,15.58-9.59v-127C320.85,185.56,313.06,182.76,305.27,182.76Z" transform="translate(0 -76)"/><path d="M195.83,209.92c6,0,9.39-6.39,9.39-13.78,0-6.39-2.8-13.38-9.39-13.38h-71.1c-6.79,0-13.58,3.2-13.58,9.59V319.16c0,6.39,6.79,9.59,13.58,9.59h71.1c6.59,0,9.39-7,9.39-13.38,0-7.39-3.4-13.78-9.39-13.78H142.31v-34h30c6.59,0,9.39-6.39,9.39-11.78,0-6.39-3.4-12.18-9.39-12.18h-30V209.92h53.52Z" transform="translate(0 -76)"/><path d="M438.14,256l71.92-151.42A20,20,0,0,0,492,76H20A20,20,0,0,0,0,96V416a20,20,0,0,0,20,20H492a20,20,0,0,0,18.07-28.58ZM40,396V116H460.36L397.93,247.42a20,20,0,0,0,0,17.16L460.36,396Z" transform="translate(0 -76)"/><rect class="cls-1" x="95.15" y="82.76" width="263" height="194"/><text class="cls-2" transform="translate(95.15 252.19) scale(0.91 1)">RU</text></svg>