<?xml version="1.0" encoding="utf-8"?>
<!-- Generator: Adobe Illustrator 21.0.0, SVG Export Plug-In . SVG Version: 6.00 Build 0)  -->
<svg version="1.1" id="Layer_1" xmlns="http://www.w3.org/2000/svg" xmlns:xlink="http://www.w3.org/1999/xlink" x="0px" y="0px"
	 viewBox="0 0 512 512" style="enable-background:new 0 0 512 512;" xml:space="preserve">
<style type="text/css">
	.st0{fill:#9579D1;}
</style>
<g>
	<g>
		<path class="st0" d="M434.8,182.1c14.6-12.8,24.2-34.2,24.2-58.3V97.3V70.9C459,31.8,433.9,0,403.1,0s-55.9,31.8-55.9,70.9v26.4
			v26.5c0,24.2,9.6,45.5,24.2,58.3c-24.5,9.8-45.6,30.1-59.5,56.1v-15.9c0-39.1-25.1-70.9-55.9-70.9s-55.9,31.8-55.9,70.9v15.9
			c-13.9-26-35-46.3-59.5-56.1c14.6-12.8,24.2-34.2,24.2-58.3V70.9c0-39.1-25.1-70.9-55.9-70.9C81,0,57.7,26.1,53.6,60.1
			c-0.4,3.6-0.6,7.1-0.6,10.8v52.9c0,24.2,9.6,45.5,24.2,58.3C33,199.8,0,251.2,0,309.5v41.3c0,5.2,3.3,9.5,7.5,9.5H48
			c4.1,0,7.5-4.2,7.5-9.5c0-5.2-3.3-9.5-7.5-9.5H14.9v-31.8c0-29.8,10.1-58.5,28.3-80.4c10.7-12.8,23.5-22.4,37.2-28.3l8.9,21.9
			l-12.9,70.9c-0.6,3.3,0.3,6.8,2.2,9.1l25.1,29.2c1.4,1.6,3.2,2.5,5,2.5s3.6-0.9,5-2.5l25.1-29.2c2-2.3,2.8-5.8,2.2-9.1l-12.6-70.8
			l8.9-21.9c13.7,5.8,26.6,15.3,37.2,28.3c13.4,16.1,22.4,35.9,26.2,56.9c0.2,2,0.6,3.9,0.9,5.8c0.8,5.8,1.2,11.7,1.2,17.6v31.8
			h-130c-4.1,0-7.5,4.2-7.5,9.5c0,5.2,3.3,9.5,7.5,9.5h113c-23.5,24.9-38.7,61.1-38.7,100.7v41.3c0,5.2,3.3,9.5,7.5,9.5h40.5
			c4.1,0,7.5-4.2,7.5-9.5c0-5.3-3.3-9.5-7.5-9.5H162v-31.8c0-29.8,10.1-58.5,28.3-80.4c10.7-12.8,23.5-22.4,37.2-28.3l8.9,21.9
			l-12.9,70.9c-0.6,3.3,0.3,6.8,2.2,9.1l25.1,29.2c1.4,1.6,3.2,2.5,5,2.5s3.6-0.9,5-2.5l25.1-29.2c2-2.3,2.8-5.8,2.2-9.1l-12.9-70.9
			l8.9-21.9c13.7,5.8,26.6,15.3,37.2,28.3c18.3,22.1,28.3,50.6,28.3,80.4V493H220c-4.1,0-7.5,4.2-7.5,9.5c0,5.3,3.3,9.5,7.5,9.5
			h137.5c4.1,0,7.5-4.2,7.5-9.5v-41.3c0-39.4-15.2-75.8-38.7-100.7h38.1c4.1,0,7.5-4.2,7.5-9.5c0-5.2-3.3-9.5-7.5-9.5h-55.1v-31.8
			c0-6,0.4-11.8,1.2-17.6c0.4-1.9,0.7-3.8,0.9-5.8c3.8-21.2,12.8-40.8,26.2-56.9c10.7-12.8,23.5-22.4,37.2-28.3l8.9,21.9l-12.9,70.9
			c-0.6,3.3,0.3,6.8,2.2,9.1l25.1,29.2c1.4,1.6,3.2,2.5,5,2.5s3.6-0.9,5-2.5l25.1-29.2c2-2.3,2.8-5.8,2.2-9.1l-12.8-70.9l8.9-21.9
			c13.7,5.8,26.6,15.3,37.2,28.3c18.3,22.1,28.3,50.6,28.3,80.4v31.8H389.2c-4.1,0-7.5,4.2-7.5,9.5c0,5.2,3.3,9.5,7.5,9.5h115.4
			c4.1,0,7.5-4.2,7.5-9.5v-41.3C512,251.2,479,199.8,434.8,182.1z M67.9,70.9c0-28.7,18.4-52,41-52s41,23.3,41,52v15.9
			c-17.3-5.5-24.4-27.9-24.7-29c-1-3.4-3.6-5.8-6.5-6.1c-2.9-0.3-5.7,1.6-7.1,4.9c-0.1,0.3-11.9,27.1-43.8,30.8
			C67.9,87.4,67.9,70.9,67.9,70.9z M108.9,312.2L92,292.6l11.2-61.6h11.4l11.2,61.6L108.9,312.2z M95.3,196.1
			c1.5-0.3,2.9-0.5,4.4-0.8c0.2,0,0.4,0,0.6-0.1c1.2-0.1,2.3-0.3,3.5-0.4c0.3,0,0.6,0,1-0.1c1-0.1,1.9-0.1,2.9-0.1
			c0.4,0,0.8,0,1.3,0s0.8,0,1.3,0c1,0,1.9,0.1,2.9,0.1c0.3,0,0.6,0,1,0.1c1.2,0.1,2.3,0.3,3.5,0.4c0.2,0,0.4,0,0.6,0.1
			c1.5,0.3,2.9,0.5,4.4,0.8l-6.5,16H102L95.3,196.1z M110.5,175.8c-0.5,0-1,0-1.5,0c-0.1,0-0.1,0-0.2,0l0,0c-0.5,0-1,0-1.5,0
			c-21.9-1.1-39.4-24-39.4-52v-17.4c25.4-2.4,41-17.1,49.3-28.2c5.8,10.8,16.2,24.5,32.7,27.8v17.8
			C149.9,151.7,132.4,174.6,110.5,175.8z M215,222.3L215,222.3c0-28.7,18.4-52,41-52c4.2,0,8.3,0.8,12.2,2.3
			c16.7,6.6,28.8,26.4,28.8,49.7v15.9c-17.3-5.5-24.4-27.9-24.7-29c-1-3.4-3.6-5.8-6.5-6.1s-5.7,1.6-7.1,4.9
			c-0.1,0.3-11.9,27.1-43.8,30.9L215,222.3L215,222.3z M217.8,336.5v-9.6c2,2.4,4.2,4.7,6.5,6.7
			C222.1,334.4,219.9,335.5,217.8,336.5z M256,463.7L239.1,444l11.2-61.6h11.4l11.2,61.6L256,463.7z M242.4,347.5
			c1.5-0.3,2.9-0.5,4.4-0.8c0.2,0,0.4,0,0.6-0.1c1.2-0.1,2.3-0.3,3.5-0.4c0.3,0,0.6,0,1-0.1c1-0.1,1.9-0.1,2.9-0.1
			c0.4,0,0.8,0,1.3,0c0.4,0,0.8,0,1.3,0c1,0,1.9,0.1,2.9,0.1c0.3,0,0.6,0,1,0.1c1.2,0.1,2.3,0.3,3.5,0.4c0.2,0,0.4,0,0.6,0.1
			c1.5,0.3,2.9,0.5,4.4,0.8l-6.5,16h-14.2L242.4,347.5z M294.2,336.5c-2.1-1-4.3-2-6.5-2.9c2.3-2,4.5-4.3,6.5-6.7V336.5z M297,275.2
			c0,2.7-0.2,5.3-0.5,7.9c-0.3,1.5-0.5,3-0.7,4.6c-4.3,22.1-19.7,38.7-38.2,39.6c-0.5,0-1,0-1.5,0c-0.1,0-0.1,0-0.2,0
			c-0.5,0-1,0-1.5,0c-18.5-0.9-33.9-17.5-38.2-39.6c-0.2-1.5-0.5-3-0.7-4.6c-0.3-2.5-0.5-5.2-0.5-7.9v-17.4
			c25.4-2.4,41-17.1,49.3-28.2c5.8,10.8,16.2,24.5,32.7,27.8V275.2L297,275.2z M362.1,70.9c0-28.7,18.4-52,41-52s41,23.3,41,52v15.9
			c-17.3-5.5-24.4-27.9-24.7-29c-1-3.4-3.6-5.8-6.5-6.1c-2.9-0.3-5.7,1.6-7.1,4.9c-0.1,0.3-11.9,27.1-43.8,30.8L362.1,70.9
			L362.1,70.9z M403.1,312.2l-16.9-19.7l11.2-61.6h11.4l11.2,61.6L403.1,312.2z M389.6,196.1c1.5-0.3,2.9-0.5,4.4-0.8
			c0.2,0,0.4,0,0.6-0.1c1.2-0.1,2.3-0.3,3.5-0.4c0.3,0,0.6,0,1-0.1c1-0.1,1.9-0.1,2.9-0.1c0.4,0,0.8,0,1.3,0s0.8,0,1.3,0
			c1,0,1.9,0.1,2.9,0.1c0.3,0,0.6,0,1,0.1c1.2,0.1,2.3,0.3,3.5,0.4c0.2,0,0.4,0,0.6,0.1c1.5,0.3,2.9,0.5,4.4,0.8l-6.5,16H396
			L389.6,196.1z M404.8,175.8c-0.5,0-1,0-1.5,0c-0.1,0-0.1,0-0.2,0l0,0c-0.5,0-1,0-1.5,0c-21.9-1.1-39.4-24-39.4-52v-17.4
			c25.4-2.4,41-17.1,49.3-28.2c5.8,10.8,16.2,24.5,32.7,27.8v17.8C444.1,151.7,426.6,174.6,404.8,175.8z"/>
	</g>
</g>
<path class="st0" d="M232.3,511.6h-43c-3.8,0-7-3.9-7-8.9v-1.3c0-4.9,3.2-8.9,7-8.9h43c3.8,0,7,3.9,7,8.9v1.3
	C239.3,507.7,236.2,511.6,232.3,511.6z"/>
<path class="st0" d="M397.6,360.3h-43c-3.8,0-7-3.9-7-8.9v-1.3c0-4.9,3.1-8.9,7-8.9h43c3.9,0,7,3.9,7,8.9v1.3
	C404.6,356.4,401.5,360.3,397.6,360.3z"/>
<path class="st0" d="M82.2,360.3h-43c-3.8,0-7-3.9-7-8.9v-1.3c0-4.9,3.1-8.9,7-8.9h43c3.8,0,7,3.9,7,8.9v1.3
	C89.2,356.3,86.1,360.3,82.2,360.3z"/>
</svg>
