<?xml version="1.0" encoding="utf-8"?>
<!-- Generator: Adobe Illustrator 21.0.0, SVG Export Plug-In . SVG Version: 6.00 Build 0)  -->
<svg version="1.1" id="Layer_1" xmlns="http://www.w3.org/2000/svg" xmlns:xlink="http://www.w3.org/1999/xlink" x="0px" y="0px"
	 viewBox="0 0 512 512" style="enable-background:new 0 0 512 512;" xml:space="preserve">
<style type="text/css">
	.st0{fill:#7ACE88;}
</style>
<g>
	<g>
		<path class="st0" d="M434.8,182.3c14.6-12.8,24.2-34.2,24.2-58.4V97.4V71c0-39.1-25.1-71-55.9-71s-55.9,31.8-55.9,71v26.5v26.5
			c0,24.2,9.6,45.6,24.2,58.4c-24.5,9.8-45.6,30-59.5,56.1v-15.9c0-39.1-25.1-71-55.9-71s-55.9,31.8-55.9,71v15.9
			c-13.9-26-35-46.3-59.5-56.1c14.6-12.8,24.2-34.2,24.2-58.4V71c0-39.1-25.1-71-55.9-71C80.9,0,57.7,26.1,53.6,60.2
			C53.2,63.7,53,67.3,53,71v52.9c0,24.2,9.6,45.6,24.2,58.4C33,199.9,0,251.4,0,309.7V351c0,5.2,3.3,9.5,7.5,9.5H48
			c4.1,0,7.5-4.2,7.5-9.5c0-5.2-3.3-9.5-7.5-9.5H14.9v-31.9c0-29.9,10.1-58.5,28.3-80.5c10.7-12.8,23.5-22.5,37.2-28.3l8.9,22
			l-12.9,71c-0.6,3.3,0.3,6.8,2.2,9.1l25.1,29.2c1.4,1.7,3.2,2.5,5,2.5s3.6-0.8,5-2.5l25.1-29.2c2-2.3,2.8-5.8,2.2-9.1l-12.9-71
			l8.9-22c13.7,5.8,26.6,15.4,37.2,28.3c13.4,16.2,22.4,35.9,26.2,57c0.2,2,0.6,3.9,0.9,5.8c0.8,5.8,1.2,11.7,1.2,17.7v31.9h-130
			c-4.1,0-7.5,4.2-7.5,9.5c0,5.2,3.3,9.5,7.5,9.5h113c-23.5,24.8-38.7,61.2-38.7,100.7v41.3c0,5.2,3.3,9.5,7.5,9.5h40.5
			c4.1,0,7.5-4.2,7.5-9.5c0-5.2-3.3-9.5-7.5-9.5H162v-31.9c0-29.9,10.1-58.5,28.3-80.5c10.7-12.8,23.5-22.5,37.2-28.3l8.9,22
			l-12.9,71c-0.6,3.3,0.3,6.8,2.2,9.1l25.1,29.2c1.4,1.7,3.2,2.5,5,2.5s3.6-0.8,5-2.5l25.1-29.2c2-2.3,2.8-5.8,2.2-9.1l-12.9-71
			l8.9-22c13.7,5.8,26.6,15.4,37.2,28.3c18.3,22,28.3,50.6,28.3,80.5v31.9H220c-4.1,0-7.5,4.2-7.5,9.5c0,5.2,3.3,9.5,7.5,9.5h137.5
			c4.1,0,7.5-4.2,7.5-9.5v-41.3c0-39.5-15.2-75.9-38.7-100.7h38.1c4.1,0,7.5-4.2,7.5-9.5c0-5.2-3.3-9.5-7.5-9.5h-55.1v-31.9
			c0-6,0.4-11.9,1.2-17.7c0.4-1.9,0.7-3.8,0.9-5.8c3.8-21.2,12.8-40.9,26.2-57c10.7-12.8,23.5-22.5,37.2-28.3l8.9,22l-12.9,71
			c-0.6,3.3,0.3,6.8,2.2,9.1l25.1,29.2c1.4,1.7,3.2,2.5,5,2.5s3.6-0.8,5-2.5l25.1-29.2c2-2.3,2.8-5.8,2.2-9.1l-12.9-71l8.9-22
			c13.7,5.8,26.6,15.4,37.2,28.3c18.3,22,28.3,50.6,28.3,80.5v31.9H389.2c-4.1,0-7.5,4.2-7.5,9.5c0,5.2,3.3,9.5,7.5,9.5h115.4
			c4.1,0,7.5-4.2,7.5-9.5v-41.3C512,251.4,479,199.9,434.8,182.3z M67.9,71c0-28.7,18.4-52,41-52s41,23.3,41,52v15.8
			c-17.3-5.4-24.4-28-24.7-29c-1-3.5-3.6-5.8-6.5-6.1c-2.9-0.2-5.7,1.7-7.1,4.9c-0.1,0.3-11.9,27.2-43.8,30.9
			C67.9,87.5,67.9,71,67.9,71z M108.9,312.4L92,292.8l11.2-61.6h11.4l11.2,61.6L108.9,312.4z M95.3,196.3c1.5-0.3,2.9-0.6,4.4-0.8
			c0.2,0,0.4-0.1,0.6-0.1c1.2-0.2,2.3-0.3,3.5-0.4c0.3,0,0.6-0.1,1-0.1c1-0.1,1.9-0.1,2.9-0.1c0.4,0,0.8,0,1.3,0s0.8,0,1.3,0
			c1,0,1.9,0.1,2.9,0.1c0.3,0,0.6,0.1,1,0.1c1.2,0.1,2.3,0.2,3.5,0.4c0.2,0,0.4,0.1,0.6,0.1c1.5,0.2,2.9,0.5,4.4,0.8l-6.5,15.9
			h-14.2L95.3,196.3z M110.5,175.9c-0.5,0-1,0-1.5-0.1c-0.1,0-0.1,0-0.2,0h0c-0.5,0-1,0-1.5,0.1c-21.9-1.1-39.4-24-39.4-52v-17.4
			c25.4-2.5,41-17.1,49.3-28.2c5.8,10.8,16.2,24.5,32.7,27.8v17.8C149.9,151.9,132.4,174.8,110.5,175.9z M215,222.5L215,222.5
			c0-28.7,18.4-52,41-52c4.2,0,8.3,0.8,12.2,2.3c16.7,6.6,28.8,26.4,28.8,49.7v15.8c-17.3-5.4-24.4-28-24.7-29
			c-1-3.5-3.6-5.8-6.5-6.1c-2.9-0.2-5.7,1.7-7.1,4.9c-0.1,0.3-11.9,27.2-43.8,30.9L215,222.5L215,222.5z M217.8,336.7v-9.6
			c2,2.4,4.2,4.7,6.5,6.7C222.1,334.7,219.9,335.7,217.8,336.7z M256,463.9l-16.9-19.6l11.2-61.6h11.4l11.2,61.6L256,463.9z
			 M242.4,347.8c1.5-0.3,2.9-0.6,4.4-0.8c0.2,0,0.4-0.1,0.6-0.1c1.2-0.2,2.3-0.3,3.5-0.4c0.3,0,0.6-0.1,1-0.1c1-0.1,1.9-0.1,2.9-0.1
			c0.4,0,0.8,0,1.3,0c0.4,0,0.8,0,1.3,0c1,0,1.9,0.1,2.9,0.1c0.3,0,0.6,0.1,1,0.1c1.2,0.1,2.3,0.2,3.5,0.4c0.2,0,0.4,0.1,0.6,0.1
			c1.5,0.2,2.9,0.5,4.4,0.8l-6.5,16h-14.2L242.4,347.8z M294.2,336.7c-2.1-1.1-4.3-2-6.5-2.9c2.3-2,4.5-4.3,6.5-6.7V336.7z
			 M297,275.4c0,2.7-0.2,5.3-0.5,7.9c-0.3,1.5-0.5,3-0.7,4.5c-4.3,22.1-19.7,38.7-38.2,39.6c-0.5,0-1,0-1.5-0.1c-0.1,0-0.1,0-0.2,0
			c-0.5,0-1,0-1.5,0.1c-18.5-0.9-33.9-17.5-38.2-39.6c-0.2-1.5-0.5-3-0.7-4.5c-0.3-2.6-0.5-5.2-0.5-7.9V258
			c25.4-2.5,41-17.1,49.3-28.2c5.8,10.8,16.2,24.5,32.7,27.8L297,275.4L297,275.4z M362.1,71c0-28.7,18.4-52,41-52s41,23.3,41,52
			v15.8c-17.3-5.4-24.4-28-24.7-29c-1-3.5-3.6-5.8-6.5-6.1c-2.9-0.2-5.7,1.7-7.1,4.9c-0.1,0.3-11.9,27.2-43.8,30.9L362.1,71
			L362.1,71z M403.1,312.4l-16.9-19.6l11.2-61.6h11.4l11.2,61.6L403.1,312.4z M389.6,196.3c1.5-0.3,2.9-0.6,4.4-0.8
			c0.2,0,0.4-0.1,0.6-0.1c1.2-0.2,2.3-0.3,3.5-0.4c0.3,0,0.6-0.1,1-0.1c1-0.1,1.9-0.1,2.9-0.1c0.4,0,0.8,0,1.3,0s0.8,0,1.3,0
			c1,0,1.9,0.1,2.9,0.1c0.3,0,0.6,0.1,1,0.1c1.2,0.1,2.3,0.2,3.5,0.4c0.2,0,0.4,0.1,0.6,0.1c1.5,0.2,2.9,0.5,4.4,0.8l-6.5,15.9H396
			L389.6,196.3z M404.8,175.9c-0.5,0-1,0-1.5-0.1c-0.1,0-0.1,0-0.2,0h0c-0.5,0-1,0-1.5,0.1c-21.9-1.1-39.4-24-39.4-52v-17.4
			c25.4-2.5,41-17.1,49.3-28.2c5.8,10.8,16.2,24.5,32.7,27.8v17.8C444.1,151.9,426.6,174.8,404.8,175.9z"/>
	</g>
</g>
<path class="st0" d="M232.3,512h-43c-3.8,0-7-3.1-7-7v-5c0-3.9,3.2-7,7-7h43c3.8,0,7,3.1,7,7v5C239.3,508.9,236.2,512,232.3,512z"/>
<path class="st0" d="M397.6,360.6h-43c-3.8,0-7-3.1-7-7v-5.1c0-3.8,3.1-7,7-7h43c3.9,0,7,3.1,7,7v5.1
	C404.6,357.4,401.5,360.6,397.6,360.6z"/>
<path class="st0" d="M82.2,360.5h-43c-3.8,0-7-3.1-7-7v-5c0-3.8,3.1-7,7-7h43c3.8,0,7,3.1,7,7v5C89.2,357.3,86.1,360.5,82.2,360.5z"
	/>
</svg>
