<?xml version="1.0" encoding="utf-8"?>
<!-- Generator: Adobe Illustrator 21.0.0, SVG Export Plug-In . SVG Version: 6.00 Build 0)  -->
<svg version="1.1" id="Capa_1" xmlns="http://www.w3.org/2000/svg" xmlns:xlink="http://www.w3.org/1999/xlink" x="0px" y="0px"
	 viewBox="0 0 460.8 460.8" style="enable-background:new 0 0 460.8 460.8;" xml:space="preserve">
<style type="text/css">
	.st0{fill:#46704B;}
	.st1{fill:#FFFFFF;}
</style>
<ellipse class="st0" cx="230.4" cy="230.5" rx="230.4" ry="230.1"/>
<g>
	<g>
		<path class="st1" d="M228.9,73c-44.4,0-80.7,36.3-80.7,80.7s36.3,80.7,80.7,80.7s80.7-36.3,80.7-80.7S273.3,73,228.9,73z"/>
	</g>
</g>
<g>
	<g>
		<path class="st1" d="M365.1,298.8c-2.1-5.3-4.8-10.2-7.9-14.8c-15.9-24-40.4-39.8-68-43.7c-3.5-0.4-7.2,0.4-10,2.5
			c-14.5,10.9-31.8,16.6-49.7,16.6s-35.2-5.6-49.7-16.6c-2.8-2.1-6.6-3.2-10-2.5c-27.6,3.9-52.5,19.7-68,43.7
			c-3.1,4.6-5.9,9.9-7.9,14.8c-1,2.1-0.7,4.6,0.3,6.7c2.8,4.9,6.2,9.9,9.3,14.1c4.8,6.7,10,12.7,15.9,18.3
			c4.8,4.9,10.4,9.5,15.9,14.1c27.3,20.8,60.1,31.7,93.9,31.7s66.6-10.9,93.9-31.7c5.5-4.2,11-9.2,15.9-14.1
			c5.5-5.6,11-11.6,15.9-18.3c3.5-4.6,6.6-9.2,9.3-14.1C365.8,303.4,366.2,301,365.1,298.8z"/>
	</g>
</g>
</svg>
