<?xml version="1.0" encoding="utf-8"?>
<!-- Generator: Adobe Illustrator 21.0.0, SVG Export Plug-In . SVG Version: 6.00 Build 0)  -->
<svg version="1.1" id="Capa_1" xmlns="http://www.w3.org/2000/svg" xmlns:xlink="http://www.w3.org/1999/xlink" x="0px" y="0px"
	 viewBox="0 0 512 512" style="enable-background:new 0 0 512 512;" xml:space="preserve">
<g>
	<g>
		<path d="M319.4,126.6v15h62.7c23.5,0,42.5,19.1,42.5,42.5c0,0.6,0,1.1,0,1.7c-0.8,22.1-18.8,40-40.8,40.8
			c-21.6,0.8-39.9-14.6-43.5-35h21.9v-15h-37.5v7.5c0,31.7,25.8,57.6,57.6,57.6c0.7,0,1.5,0,2.2,0c29.9-1.1,54.1-25.4,55.3-55.3
			c0-0.7,0-1.5,0-2.2c0-31.7-25.8-57.6-57.6-57.6L319.4,126.6L319.4,126.6z"/>
		<path d="M127.6,241.7c0.7,0,1.5,0,2.2,0c31.7,0,57.6-25.8,57.6-57.6v-7.5h-37.5v15h21.9c-3.6,19.9-21,35-41.9,35
			c-0.6,0-1.1,0-1.7,0c-22.1-0.8-40-18.8-40.8-40.8c0-0.6,0-1.1,0-1.7c0-23.5,19.1-42.5,42.5-42.5h174.5v-15H129.9
			c-31.7,0-57.6,25.8-57.6,57.6c0,0.7,0,1.5,0,2.2C73.5,216.3,97.8,240.6,127.6,241.7L127.6,241.7z"/>
		<path d="M174.4,23.9l13-7.5l25,43.3l-13,7.5L174.4,23.9z"/>
		<path d="M122.2,81.6l7.5-13l43.3,25l-7.5,13L122.2,81.6z"/>
		<path d="M338.9,93.6l43.3-25l7.5,13l-43.3,25L338.9,93.6z"/>
		<path d="M299.5,59.7l25-43.3l13,7.5l-25,43.3L299.5,59.7z"/>
		<path d="M498.7,467v-49.2l-87.5-11.2l-1.9,14.9l74.4,9.5V467H342.1v15h154.7v15H123.9v15h387.9v-45H498.7z"/>
		<path d="M15.3,482h311.8v-15h-63.6v-15.7c0-23.5,19-42.5,42.4-42.5c1.8,0,3.7,0.1,5.5,0.4l83,10.6l1.9-14.9l-2.7-0.3V256.3h-15
			v146.2l-21-2.7V280.3c0-15.2-12.3-27.5-27.5-27.5c-15.2,0-27.5,12.3-27.5,27.5v113.5c-6.7,0.4-13.1,1.9-19,4.5v-118
			c0-15.2-12.3-27.5-27.5-27.5c-15.2,0-27.5,12.3-27.5,27.5v118c-5.9-2.5-12.3-4.1-19-4.5V280.3c0-15.2-12.3-27.5-27.5-27.5
			c-15.2,0-27.5,12.3-27.5,27.5v119.5l-21,2.7V256.3h-15v148.1L13.3,417.8V467h-13v45h108.6v-15H15.3V482z M317.6,280.3
			c0-6.9,5.6-12.5,12.5-12.5c6.9,0,12.5,5.6,12.5,12.5v117.6l-25-3.2V280.3z M243.5,280.3c0-6.9,5.6-12.5,12.5-12.5
			s12.5,5.6,12.5,12.5v127.3c-5,4.3-9.2,9.4-12.5,15.2c-3.3-5.8-7.5-10.9-12.5-15.2V280.3z M169.4,280.3c0-6.9,5.6-12.5,12.5-12.5
			c6.9,0,12.5,5.6,12.5,12.5v114.4l-25,3.2V280.3z M28.3,431l172.3-22c1.8-0.2,3.7-0.4,5.5-0.4c23.4,0,42.4,19.1,42.4,42.5V467H28.3
			L28.3,431z"/>
		<path d="M248.5,0h15v50h-15V0z"/>
		<path d="M278.5,176.7h15v15h-15V176.7z"/>
		<path d="M218.5,176.7h15v15h-15V176.7z"/>
		<path d="M248.5,176.7h15v15h-15V176.7z"/>
		<path d="M379.1,176.7h15v15h-15V176.7z"/>
		<path d="M117.9,176.7h15v15h-15V176.7z"/>
	</g>
	<rect x="125.4" y="176.7" width="35.6" height="15"/>
	<rect x="352" y="176.7" width="34.6" height="15"/>
	<rect x="218.5" y="176.7" width="75.1" height="15"/>
	<rect x="256" y="176.7" width="75.1" height="15"/>
	<rect x="180.9" y="176.7" width="75.1" height="15"/>
	<rect x="386.5" y="406.6" transform="matrix(0.9938 0.1116 -0.1116 0.9938 48.7132 -42.7301)" width="39.4" height="14.5"/>
	<rect x="366.6" y="248.4" transform="matrix(-1.836970e-16 1 -1 -1.836970e-16 642.2482 -130.2482)" width="39.4" height="15.3"/>
	<rect x="106.7" y="245.1" transform="matrix(-1.836970e-16 1 -1 -1.836970e-16 379.1193 126.3744)" width="39.4" height="15.3"/>
	<rect x="90" y="497" width="53.2" height="15"/>
	<rect x="291.2" y="126.6" width="53.2" height="15"/>
	<rect x="317.8" y="467" width="39.2" height="15"/>
</g>
</svg>
