<?xml version="1.0" encoding="utf-8"?>
<!-- Generator: Adobe Illustrator 21.0.0, SVG Export Plug-In . SVG Version: 6.00 Build 0)  -->
<svg version="1.1" id="Capa_1" xmlns="http://www.w3.org/2000/svg" xmlns:xlink="http://www.w3.org/1999/xlink" x="0px" y="0px"
	 viewBox="0 0 71.9 71.9" style="enable-background:new 0 0 71.9 71.9;" xml:space="preserve">
<style type="text/css">
	.st0{fill:#FFFFFF;}
	.st1{fill:#9579D1;}
</style>
<g>
	<path class="st0" d="M31.8,56.1L9.6,71.9h0c0,0,0-48.2,0-53.8C9.6,7.5,18,0,33.9,0c6.8,0,30.2,0,34,0C58.6,2.5,54,8.3,54,19
		c0,9.5,0,52.9,0,52.9L31.8,56.1z"/>
</g>
<g>
	<g>
		<path class="st1" d="M46.4,29.2c-0.2-0.6-0.7-1-1.2-1.2v-8c0.1-0.2,0.2-0.3,0.2-0.5c0-0.4-0.2-0.7-0.5-0.8l-14.3-6.4
			c-0.2-0.1-0.5-0.1-0.7,0l-14.3,6.4c-0.3,0.1-0.6,0.5-0.5,0.8c0,0.4,0.2,0.7,0.6,0.8l4.9,1.7v6.3c0,0.3,0.1,0.5,0.4,0.7
			c0.2,0.2,0.5,0.2,0.8,0.1c5.5-2,11.5-2,17,0l0.3,0.1c0.2,0,0.4-0.1,0.5-0.2c0.2-0.1,0.4-0.4,0.4-0.7v-6.4l3.5-1.2V28
			c-1.2,0.5-1.7,1.8-1.2,3c0.5,1.2,1.8,1.7,3,1.2C46.3,31.7,46.9,30.4,46.4,29.2z"/>
	</g>
</g>
<g>
	<path class="st0" d="M30,19.3l-1.1,0.1c-0.4,0-0.7,0.1-0.9,0.1c-0.3,0-0.4,0.1-0.4,0.1c0,0,0,0.1,0,0.2c0,0.1-0.1,0.3-0.1,0.6
		c-0.1,0.2-0.1,0.4-0.1,0.5c0.1,0,0.4,0,0.6,0s0.5-0.1,0.6-0.1c0.3-0.1,0.6-0.1,0.8-0.1c0.4,0,0.5,0.1,0.5,0.3
		c0,0.2-0.1,0.3-0.2,0.3c-0.1,0.1-0.3,0.1-0.5,0.1c-0.1,0-0.3,0-0.4,0.1c-0.1,0-0.2,0-0.3,0c-0.6,0.1-1,0.1-1.1,0.2h0
		c0,0-0.1,0-0.1,0.1c0,0-0.1,0.2-0.1,0.5C27,22.6,27,22.8,27,22.9c0,0.1,0.1,0.1,0.2,0.1c0.1,0,0.4,0,0.9-0.1
		c0.5-0.1,0.8-0.1,0.9-0.1c0.3-0.1,0.5-0.1,0.6-0.1c0.3,0,0.4,0.2,0.4,0.4c0,0.1,0,0.2-0.1,0.2c-0.2,0.1-0.5,0.2-0.9,0.2
		c-0.3,0-0.7,0.1-1.1,0.1c-0.4,0.1-0.8,0.1-1.1,0.1c-0.2,0-0.3,0-0.4-0.1c-0.1-0.1-0.1-0.2-0.1-0.4l0-0.1c0,0,0-0.1,0.1-0.2
		c0.1-0.3,0.2-0.9,0.3-1.9s0.2-1.5,0.2-1.6c0,0,0,0,0,0c0,0,0-0.1-0.1-0.1c0-0.1-0.1-0.1-0.1-0.2c0,0,0-0.1,0-0.1
		c0,0,0.1-0.1,0.1-0.1s0.2-0.1,0.2-0.1c0.1,0,0.2,0,0.3,0c0.2,0,0.8-0.1,1.8-0.2c0.3,0,0.5-0.1,0.5-0.1l0,0c0.4,0,0.6,0.1,0.6,0.4
		c0,0.1,0,0.1-0.1,0.2C30.1,19.2,30,19.3,30,19.3z"/>
	<path class="st0" d="M34.1,23.3c-0.1,0-0.1,0-0.3,0c-0.1,0-0.2,0-0.3,0c-0.6,0-1.2,0.1-1.8,0.3c-0.2,0.1-0.4,0.1-0.5,0.1
		c-0.1,0-0.2-0.1-0.3-0.2s-0.1-0.2-0.1-0.3c0,0,0-0.1,0.1-0.3c0.1-0.2,0.1-0.4,0.1-0.7l0.3-2.8c0-0.3,0-0.4,0.1-0.5
		c0-0.1,0.1-0.2,0.1-0.2s0.2-0.1,0.3-0.1c0.1,0,0.2,0,0.3,0.1s0.1,0.2,0.1,0.3c0,0.1,0,0.2-0.1,0.5c-0.1,0.3-0.1,0.9-0.2,1.8
		c-0.1,0.9-0.2,1.4-0.2,1.4c0,0.1,0,0.1,0,0.1c0.1,0,0.3,0,0.7-0.1c0.2,0,0.4,0,0.6-0.1c0.5,0,0.9-0.1,1.1-0.1c0.1,0,0.1,0,0.2,0
		c0.1,0,0.2,0,0.3,0.1c0.1,0.1,0.1,0.2,0.1,0.3c0,0.2-0.1,0.3-0.2,0.4C34.4,23.3,34.3,23.3,34.1,23.3z"/>
</g>
<g>
	<ellipse class="st1" cx="44.3" cy="33.6" rx="0.2" ry="0.8"/>
	<g>
		<g>
			<ellipse transform="matrix(0.8429 -0.538 0.538 0.8429 -7.8798 29.9421)" class="st1" cx="47.3" cy="28.5" rx="0.8" ry="0.2"/>
			<ellipse transform="matrix(0.3745 -0.9272 0.9272 0.3745 3.6575 59.6751)" class="st1" cx="46.1" cy="27.1" rx="0.8" ry="0.2"/>
			<ellipse class="st1" cx="47.7" cy="30.2" rx="0.8" ry="0.2"/>
		</g>
		<g>
			<ellipse transform="matrix(0.538 -0.8429 0.8429 0.538 -4.9999 54.63)" class="st1" cx="47.3" cy="31.9" rx="0.2" ry="0.8"/>
			<ellipse transform="matrix(0.9272 -0.3745 0.3745 0.9272 -9.088 19.669)" class="st1" cx="46.1" cy="33.2" rx="0.2" ry="0.8"/>
			<ellipse class="st1" cx="47.7" cy="30.2" rx="0.8" ry="0.2"/>
		</g>
	</g>
	<g>
		<g>
			<ellipse transform="matrix(0.538 -0.8429 0.8429 0.538 -4.9664 47.8708)" class="st1" cx="41.2" cy="28.5" rx="0.2" ry="0.8"/>
			<ellipse transform="matrix(0.9272 -0.3745 0.3745 0.9272 -7.0686 17.8807)" class="st1" cx="42.5" cy="27.1" rx="0.2" ry="0.8"/>
			<ellipse class="st1" cx="40.9" cy="30.2" rx="0.8" ry="0.2"/>
		</g>
		<g>
			<ellipse transform="matrix(0.8429 -0.538 0.538 0.8429 -10.6806 27.1689)" class="st1" cx="41.2" cy="31.9" rx="0.8" ry="0.2"/>
			<ellipse transform="matrix(0.3745 -0.9272 0.9272 0.3745 -4.2352 60.1542)" class="st1" cx="42.5" cy="33.2" rx="0.8" ry="0.2"/>
			<ellipse class="st1" cx="40.9" cy="30.2" rx="0.8" ry="0.2"/>
		</g>
	</g>
</g>
<g>
	<path class="st1" d="M17.9,44h-2.1v3.1h2.4V48H15v-8.5h3v0.9h-2.3v2.7h2.1V44z"/>
	<path class="st1" d="M21.2,48l-0.1-0.8h0c-0.2,0.5-0.6,0.9-1.2,0.9c-0.8,0-1.2-0.9-1.2-1.8c0-1.5,0.9-2.3,2.4-2.3V44
		c0-0.5-0.1-1.4-0.9-1.4c-0.4,0-0.8,0.2-1,0.5L19,42.3c0.3-0.3,0.8-0.5,1.3-0.5c1.2,0,1.5,1.3,1.5,2.5v2.3c0,0.5,0,1,0.1,1.5H21.2z
		 M21.1,44.9c-0.8,0-1.7,0.2-1.7,1.4c0,0.7,0.3,1.1,0.7,1.1c0.5,0,0.8-0.5,1-1c0-0.1,0-0.2,0-0.4V44.9z"/>
	<path class="st1" d="M22.9,46.9c0.2,0.2,0.6,0.4,1,0.4c0.5,0,0.8-0.4,0.8-0.9c0-0.5-0.2-0.8-0.7-1.1c-0.7-0.4-1-1-1-1.7
		c0-1,0.5-1.8,1.4-1.8c0.4,0,0.8,0.2,1,0.4L25,42.9c-0.2-0.2-0.4-0.4-0.8-0.4c-0.4,0-0.7,0.4-0.7,0.8c0,0.5,0.2,0.7,0.8,1
		c0.7,0.4,1,0.9,1,1.8c0,1.1-0.5,1.8-1.5,1.8c-0.4,0-0.8-0.2-1.1-0.4L22.9,46.9z"/>
	<path class="st1" d="M26.5,41.9l0.9,3.6c0.1,0.4,0.2,0.9,0.3,1.3h0c0.1-0.4,0.2-0.8,0.3-1.3l0.8-3.6h0.8l-1.1,4.4
		c-0.5,2.1-0.9,3.2-1.4,3.8c-0.4,0.5-0.7,0.7-0.9,0.7l-0.2-0.9c0.2-0.1,0.4-0.3,0.6-0.5c0.2-0.2,0.4-0.7,0.6-1.2
		c0-0.1,0.1-0.2,0.1-0.3s0-0.2,0-0.3l-1.5-5.6H26.5z"/>
	<path class="st1" d="M31.8,39h0.7v9h-0.7V39z"/>
	<path class="st1" d="M34.2,45.1c0,1.5,0.6,2.1,1.4,2.1c0.5,0,0.8-0.1,1.1-0.3l0.1,0.8c-0.3,0.2-0.7,0.4-1.3,0.4
		c-1.2,0-1.9-1.2-1.9-3.1c0-1.8,0.7-3.3,1.9-3.3c1.3,0,1.6,1.8,1.6,2.9c0,0.2,0,0.4,0,0.5H34.2z M36.3,44.4c0-0.7-0.2-1.8-1-1.8
		c-0.7,0-1,1-1.1,1.8H36.3z"/>
	<path class="st1" d="M40.1,48L40,47.2h0c-0.2,0.5-0.6,0.9-1.2,0.9c-0.8,0-1.2-0.9-1.2-1.8c0-1.5,0.9-2.3,2.4-2.3V44
		c0-0.5-0.1-1.4-0.9-1.4c-0.4,0-0.8,0.2-1,0.5l-0.2-0.7c0.3-0.3,0.8-0.5,1.3-0.5c1.2,0,1.5,1.3,1.5,2.5v2.3c0,0.5,0,1,0.1,1.5H40.1z
		 M40,44.9c-0.8,0-1.7,0.2-1.7,1.4c0,0.7,0.3,1.1,0.7,1.1c0.5,0,0.8-0.5,1-1c0-0.1,0-0.2,0-0.4V44.9z"/>
	<path class="st1" d="M41.8,43.8c0-0.7,0-1.3,0-1.9h0.6l0,1.2h0c0.2-0.8,0.6-1.3,1.1-1.3c0.1,0,0.1,0,0.2,0v1c-0.1,0-0.1,0-0.2,0
		c-0.5,0-0.9,0.6-1,1.4c0,0.2,0,0.3,0,0.5V48h-0.7V43.8z"/>
	<path class="st1" d="M44.6,43.5c0-0.6,0-1.1,0-1.7h0.6l0,1h0c0.2-0.6,0.7-1.1,1.3-1.1c0.5,0,1.4,0.5,1.4,2.6V48h-0.7v-3.5
		c0-1-0.2-1.8-0.9-1.8c-0.5,0-0.8,0.5-1,1.1c0,0.1,0,0.3,0,0.5V48h-0.7V43.5z"/>
</g>
</svg>
